<svg xmlns="http://www.w3.org/2000/svg" viewBox="0 0 61.7 1077" preserveAspectRatio="none"><style><![CDATA[.G{stroke:#706f6f}.H{stroke-miterlimit:10}]]></style><linearGradient id="A" gradientUnits="userSpaceOnUse" x1="1" y1="537.614" x2="60.995" y2="537.614"><stop offset="0" stop-color="#f7f7f7"/><stop offset="0" stop-color="#f9f9f8"/><stop offset="0" stop-color="#fdfdfd"/><stop offset="0" stop-color="#fff"/><stop offset=".515" stop-color="#fefefe"/><stop offset=".7" stop-color="#f9f9f9"/><stop offset=".833" stop-color="#f0f0f0"/><stop offset=".939" stop-color="#e4e4e4"/><stop offset="1" stop-color="#dadada"/></linearGradient><path d="M29.9 1061l-28.9.2V14l30.5.5C48 14.8 61.1 28.3 61 44.8l-3.6 503.5-.2 141.3.3 103.5 2.2 237.6c.2 16.6-13.2 30.2-29.8 30.3z" fill="url(#A)" class="G H"/><linearGradient id="B" gradientUnits="userSpaceOnUse" x1=".5" y1="537.815" x2="57.812" y2="537.815"><stop offset="0" stop-color="#f7f7f7"/><stop offset="0" stop-color="#f9f9f8"/><stop offset="0" stop-color="#fdfdfd"/><stop offset="0" stop-color="#fff"/><stop offset=".515" stop-color="#fefefe"/><stop offset=".7" stop-color="#f9f9f9"/><stop offset=".833" stop-color="#f0f0f0"/><stop offset=".939" stop-color="#e4e4e4"/><stop offset="1" stop-color="#dadada"/></linearGradient><path d="M24.8 1063.2l-24.3.1V12.4l27.2-.1c16.8-.1 30.4 13.7 30.1 30.5L55 258.1l-.3 774.9c.1 16.5-13.3 30.1-29.9 30.2z" fill="url(#B)" class="G H"/><linearGradient id="C" gradientUnits="userSpaceOnUse" x1=".5" y1="537.085" x2="54.118" y2="537.085"><stop offset="0" stop-color="#f7f7f7"/><stop offset="0" stop-color="#f9f9f8"/><stop offset="0" stop-color="#fdfdfd"/><stop offset="0" stop-color="#fff"/><stop offset=".515" stop-color="#fefefe"/><stop offset=".7" stop-color="#f9f9f9"/><stop offset=".833" stop-color="#f0f0f0"/><stop offset=".939" stop-color="#e4e4e4"/><stop offset="1" stop-color="#dadada"/></linearGradient><path d="M24 1066.8H.5V7.4h23.6c16.6 0 30 13.4 30 30L54 475.2v561.6c0 16.6-13.4 30-30 30z" fill="url(#C)" class="G H"/><linearGradient id="D" gradientUnits="userSpaceOnUse" x1=".5" y1="538.319" x2="51.359" y2="538.319"><stop offset="0" stop-color="#f7f7f7"/><stop offset="0" stop-color="#f9f9f8"/><stop offset="0" stop-color="#fdfdfd"/><stop offset="0" stop-color="#fff"/><stop offset=".515" stop-color="#fefefe"/><stop offset=".7" stop-color="#f9f9f9"/><stop offset=".833" stop-color="#f0f0f0"/><stop offset=".939" stop-color="#e4e4e4"/><stop offset="1" stop-color="#dadada"/></linearGradient><path d="M21.4 1071.5H.5V5.2h19.8c16.5 0 29.9 13.4 30 30l1.2 1006.2c-.1 16.6-13.6 30.1-30.1 30.1z" fill="url(#D)" class="G H"/><linearGradient id="E" gradientUnits="userSpaceOnUse" x1="2.5" y1="538.082" x2="48.158" y2="538.082"><stop offset="0" stop-color="#f7f7f7"/><stop offset="0" stop-color="#f9f9f8"/><stop offset="0" stop-color="#fdfdfd"/><stop offset="0" stop-color="#fff"/><stop offset=".515" stop-color="#fefefe"/><stop offset=".7" stop-color="#f9f9f9"/><stop offset=".833" stop-color="#f0f0f0"/><stop offset=".939" stop-color="#e4e4e4"/><stop offset="1" stop-color="#dadada"/></linearGradient><path d="M18.2 1074.2H2.5V2h15.7c16.6 0 30 13.4 30 30v1012.2c0 16.5-13.5 30-30 30z" fill="url(#E)" class="G H"/><linearGradient id="F" gradientUnits="userSpaceOnUse" x1="1" y1="538.493" x2="44.922" y2="538.493"><stop offset="0" stop-color="#f7f7f7"/><stop offset="0" stop-color="#f9f9f8"/><stop offset="0" stop-color="#fdfdfd"/><stop offset="0" stop-color="#fff"/><stop offset=".515" stop-color="#fefefe"/><stop offset=".7" stop-color="#f9f9f9"/><stop offset=".833" stop-color="#f0f0f0"/><stop offset=".939" stop-color="#e4e4e4"/><stop offset="1" stop-color="#dadada"/></linearGradient><path d="M14.9 1076.5H1V.5h13.9c16.6 0 30 13.4 30 30v1016c0 16.6-13.4 30-30 30z" fill="url(#F)" class="G H"/></svg>